<svg width="147" height="140" viewBox="0 0 147 140" fill="none" xmlns="http://www.w3.org/2000/svg">
<path d="M114.207 29.5912H104.155C104.155 29.5912 104.107 35.3794 104.04 36.4876H114.207C116.033 36.4876 117.785 37.2117 119.077 38.5012C120.37 39.7906 121.099 41.5401 121.104 43.366V60.5979C121.104 62.4269 120.377 64.1811 119.084 65.4744C117.79 66.7677 116.036 67.4943 114.207 67.4943H94.9334C90.9221 67.4943 87.9467 67.1028 85.7362 66.3499C82.5982 65.2899 81.0202 63.507 80.2252 61.0978C78.6712 61.1701 77.2136 61.1761 75.9669 61.1761C75.0273 61.1761 74.0816 61.1761 73.1722 61.1761C74.2925 66.5246 77.3883 71.4153 85.7362 73.421C87.626 73.8517 89.5477 74.1277 91.4822 74.2461V90.1771C91.4806 92.0041 90.7542 93.7557 89.4623 95.0476C88.1705 96.3394 86.4188 97.0659 84.5919 97.0675H67.366C65.5374 97.0675 63.7836 96.3419 62.4895 95.0501C61.1954 93.7582 60.4667 92.0057 60.4635 90.1771V70.9033C60.4635 55.388 66.3059 55.388 75.9789 55.388C85.4411 55.388 98.3907 55.388 98.3907 32.9762V13.7928C98.3875 10.1399 96.9366 6.6371 94.3559 4.05183C91.7751 1.46656 88.2749 0.00956126 84.622 0L67.366 0C63.7089 0.00318979 60.2025 1.45738 57.6165 4.04334C55.0305 6.62929 53.5764 10.1357 53.5732 13.7928V29.5912H37.7928C34.1388 29.5944 30.6351 31.0461 28.0497 33.6282C25.4643 36.2102 24.008 39.712 24 43.366L24 60.5979C24.0032 64.255 25.4574 67.7614 28.0433 70.3474C30.6293 72.9333 34.1357 74.3875 37.7928 74.3907H47.8452V70.9455C47.8452 69.7409 47.8874 68.6025 47.9597 67.4943H37.7928C35.9637 67.4943 34.2096 66.7677 32.9163 65.4744C31.623 64.1811 30.8964 62.4269 30.8964 60.5979V43.366C30.9012 41.5401 31.6299 39.7906 32.9227 38.5012C34.2155 37.2117 35.9669 36.4876 37.7928 36.4876H57.0665C61.0839 36.4876 64.0593 36.8791 66.2577 37.626C69.3957 38.6921 70.9798 40.4749 71.7748 42.8781C73.3288 42.8118 74.7863 42.8058 76.0271 42.8058C76.9727 42.8058 77.9183 42.8058 78.8338 42.8058C77.7075 37.4634 74.6177 32.5666 66.2577 30.567C64.3681 30.1354 62.4464 29.8594 60.5117 29.7418V13.7928C60.5133 11.9715 61.2346 10.2247 62.5184 8.93288C63.8023 7.64111 65.5447 6.90911 67.366 6.89639H84.6039C85.5106 6.89481 86.4086 7.07202 87.2467 7.41789C88.0848 7.76375 88.8465 8.27149 89.4882 8.91203C90.1299 9.55258 90.6389 10.3134 90.9863 11.1509C91.3336 11.9884 91.5124 12.8861 91.5124 13.7928V33.0665C91.5124 48.5819 85.676 48.5819 75.997 48.5819C66.5408 48.5819 53.5912 48.5819 53.5912 70.9937V90.2674C53.6103 93.911 55.069 97.3992 57.6494 99.9716C60.2297 102.544 63.7224 103.992 67.366 104H84.6039C88.2589 103.995 91.7629 102.541 94.3473 99.9567C96.9318 97.3722 98.3859 93.8682 98.3907 90.2132V74.4088H114.189C117.846 74.4056 121.353 72.9514 123.939 70.3654C126.525 67.7795 127.979 64.2731 127.982 60.616V43.366C127.974 39.7151 126.52 36.2161 123.939 33.6346C121.357 31.053 117.858 29.5992 114.207 29.5912Z" fill="#37CCD6"/>
<path d="M23.9502 134V122.22L17.7246 134H13.3789L7.15332 122.22V134H2.62451V117.228H8.77686L15.5518 129.923L22.3267 117.228H28.4546V134H23.9502ZM51.6548 133.17C50.2795 133.626 48.9041 133.951 47.5288 134.146C46.1616 134.35 44.7619 134.452 43.3296 134.452C41.4985 134.452 39.8669 134.256 38.4346 133.866C37.0104 133.467 35.8101 132.893 34.8335 132.145C33.8569 131.396 33.1123 130.48 32.5996 129.398C32.0869 128.316 31.8306 127.091 31.8306 125.724C31.8306 124.454 32.0869 123.278 32.5996 122.196C33.1204 121.105 33.8529 120.161 34.7969 119.364C35.749 118.558 36.8965 117.931 38.2393 117.484C39.582 117.028 41.0794 116.8 42.7314 116.8C44.2533 116.8 45.6449 117.008 46.9062 117.423C48.1758 117.83 49.2622 118.436 50.1655 119.242C51.077 120.047 51.7809 121.04 52.2773 122.22C52.7819 123.4 53.0342 124.759 53.0342 126.297V127.42H36.5059C36.6523 127.949 36.8924 128.434 37.2261 128.873C37.5679 129.312 38.0277 129.687 38.6055 129.996C39.1833 130.305 39.8913 130.545 40.7295 130.716C41.5758 130.887 42.585 130.973 43.7568 130.973C44.5869 130.973 45.4007 130.924 46.1982 130.826C46.9958 130.72 47.7404 130.586 48.4321 130.423C49.1239 130.252 49.7464 130.065 50.2998 129.862C50.8613 129.658 51.313 129.455 51.6548 129.251V133.17ZM48.5298 124.1C48.4891 123.685 48.363 123.258 48.1514 122.818C47.9479 122.371 47.6224 121.968 47.1748 121.61C46.7272 121.252 46.1413 120.959 45.417 120.731C44.6927 120.495 43.7894 120.377 42.707 120.377C41.6898 120.377 40.8109 120.503 40.0703 120.755C39.3298 121.008 38.7072 121.321 38.2026 121.695C37.7062 122.07 37.3197 122.472 37.043 122.904C36.7663 123.335 36.5872 123.734 36.5059 124.1H48.5298ZM76.9424 125.602C76.9424 126.676 76.8244 127.632 76.5884 128.47C76.3524 129.3 76.0187 130.025 75.5874 130.643C75.1642 131.262 74.6515 131.786 74.0493 132.218C73.4552 132.649 72.792 132.995 72.0596 133.255C71.3271 133.516 70.5378 133.707 69.6914 133.829C68.8451 133.943 67.9621 134 67.0425 134H56.3979V117.228H67.0181C67.9377 117.228 68.8206 117.289 69.667 117.411C70.5133 117.525 71.3027 117.712 72.0352 117.972C72.7757 118.233 73.4471 118.578 74.0493 119.01C74.6515 119.433 75.1642 119.958 75.5874 120.584C76.0187 121.203 76.3524 121.927 76.5884 122.757C76.8244 123.587 76.9424 124.535 76.9424 125.602ZM72.377 125.602C72.377 124.796 72.2712 124.096 72.0596 123.502C71.8561 122.908 71.5225 122.42 71.0586 122.037C70.6029 121.646 70.0047 121.358 69.2642 121.17C68.5236 120.975 67.6203 120.877 66.5542 120.877H60.9268V130.35H66.5542C67.6203 130.35 68.5236 130.257 69.2642 130.069C70.0047 129.874 70.6029 129.581 71.0586 129.19C71.5225 128.792 71.8561 128.295 72.0596 127.701C72.2712 127.107 72.377 126.407 72.377 125.602ZM104.532 134L102.225 129.581H90.8354L88.5283 134H86.856L95.6328 117.228H97.4272L106.204 134H104.532ZM96.5361 118.705L91.5801 128.177H101.48L96.5361 118.705ZM125.12 122.379C125.12 123.217 124.981 123.958 124.705 124.601C124.436 125.243 124.009 125.785 123.423 126.224C122.837 126.664 122.08 126.997 121.152 127.225C120.233 127.445 119.122 127.555 117.82 127.555H110.288V134H108.762V117.228H117.82C119.122 117.228 120.233 117.341 121.152 117.569C122.08 117.789 122.837 118.115 123.423 118.546C124.009 118.977 124.436 119.514 124.705 120.157C124.981 120.8 125.12 121.541 125.12 122.379ZM123.545 122.379C123.545 121.581 123.411 120.938 123.142 120.45C122.882 119.962 122.475 119.588 121.921 119.327C121.376 119.059 120.68 118.88 119.834 118.79C118.996 118.701 117.999 118.656 116.843 118.656H110.288V126.126H116.843C117.291 126.126 117.767 126.131 118.271 126.139C118.784 126.139 119.289 126.114 119.785 126.065C120.282 126.008 120.754 125.915 121.201 125.785C121.657 125.646 122.056 125.439 122.397 125.162C122.747 124.885 123.024 124.523 123.228 124.076C123.439 123.628 123.545 123.062 123.545 122.379ZM144.853 122.379C144.853 123.217 144.715 123.958 144.438 124.601C144.169 125.243 143.742 125.785 143.156 126.224C142.57 126.664 141.813 126.997 140.886 127.225C139.966 127.445 138.855 127.555 137.553 127.555H130.021V134H128.496V117.228H137.553C138.855 117.228 139.966 117.341 140.886 117.569C141.813 117.789 142.57 118.115 143.156 118.546C143.742 118.977 144.169 119.514 144.438 120.157C144.715 120.8 144.853 121.541 144.853 122.379ZM143.278 122.379C143.278 121.581 143.144 120.938 142.875 120.45C142.615 119.962 142.208 119.588 141.655 119.327C141.11 119.059 140.414 118.88 139.567 118.79C138.729 118.701 137.732 118.656 136.577 118.656H130.021V126.126H136.577C137.024 126.126 137.5 126.131 138.005 126.139C138.518 126.139 139.022 126.114 139.519 126.065C140.015 126.008 140.487 125.915 140.935 125.785C141.39 125.646 141.789 125.439 142.131 125.162C142.481 124.885 142.757 124.523 142.961 124.076C143.173 123.628 143.278 123.062 143.278 122.379Z" fill="white"/>
</svg>
