<svg width="104" height="104" viewBox="0 0 104 104" fill="none" xmlns="http://www.w3.org/2000/svg">
<path d="M90.2072 29.5912H80.1547C80.1547 29.5912 80.1065 35.3794 80.0403 36.4876H90.2072C92.0331 36.4876 93.7845 37.2117 95.0773 38.5012C96.3701 39.7906 97.0988 41.5401 97.1036 43.366V60.5979C97.1036 62.4269 96.377 64.1811 95.0837 65.4744C93.7904 66.7677 92.0362 67.4943 90.2072 67.4943H70.9334C66.9221 67.4943 63.9467 67.1028 61.7362 66.3499C58.5982 65.2899 57.0202 63.507 56.2252 61.0978C54.6712 61.1701 53.2136 61.1761 51.9669 61.1761C51.0273 61.1761 50.0816 61.1761 49.1722 61.1761C50.2925 66.5246 53.3883 71.4153 61.7362 73.421C63.626 73.8517 65.5477 74.1277 67.4822 74.2461V90.1771C67.4806 92.0041 66.7542 93.7557 65.4623 95.0476C64.1705 96.3394 62.4188 97.0659 60.5919 97.0675H43.366C41.5374 97.0675 39.7836 96.3419 38.4895 95.0501C37.1954 93.7582 36.4667 92.0057 36.4635 90.1771V70.9033C36.4635 55.388 42.3059 55.388 51.9789 55.388C61.4411 55.388 74.3907 55.388 74.3907 32.9762V13.7928C74.3875 10.1399 72.9366 6.6371 70.3559 4.05183C67.7751 1.46656 64.2749 0.00956126 60.622 0L43.366 0C39.7089 0.00318979 36.2025 1.45738 33.6165 4.04334C31.0305 6.62929 29.5764 10.1357 29.5732 13.7928V29.5912H13.7928C10.1388 29.5944 6.63515 31.0461 4.04971 33.6282C1.46427 36.2102 0.00796976 39.712 0 43.366L0 60.5979C0.00318979 64.255 1.45738 67.7614 4.04333 70.3474C6.62929 72.9333 10.1357 74.3875 13.7928 74.3907H23.8452V70.9455C23.8452 69.7409 23.8874 68.6025 23.9597 67.4943H13.7928C11.9637 67.4943 10.2096 66.7677 8.9163 65.4744C7.62297 64.1811 6.89639 62.4269 6.89639 60.5979V43.366C6.90117 41.5401 7.62987 39.7906 8.92267 38.5012C10.2155 37.2117 11.9669 36.4876 13.7928 36.4876H33.0665C37.0839 36.4876 40.0593 36.8791 42.2577 37.626C45.3957 38.6921 46.9798 40.4749 47.7748 42.8781C49.3288 42.8118 50.7863 42.8058 52.0271 42.8058C52.9727 42.8058 53.9183 42.8058 54.8338 42.8058C53.7075 37.4634 50.6177 32.5666 42.2577 30.567C40.3681 30.1354 38.4464 29.8594 36.5117 29.7418V13.7928C36.5133 11.9715 37.2346 10.2247 38.5184 8.93288C39.8023 7.64111 41.5447 6.90911 43.366 6.89639H60.6039C61.5106 6.89481 62.4086 7.07202 63.2467 7.41789C64.0848 7.76375 64.8465 8.27149 65.4882 8.91203C66.1299 9.55258 66.6389 10.3134 66.9863 11.1509C67.3336 11.9884 67.5124 12.8861 67.5124 13.7928V33.0665C67.5124 48.5819 61.676 48.5819 51.997 48.5819C42.5408 48.5819 29.5912 48.5819 29.5912 70.9937V90.2674C29.6103 93.911 31.069 97.3992 33.6494 99.9716C36.2297 102.544 39.7224 103.992 43.366 104H60.6039C64.2589 103.995 67.7629 102.541 70.3473 99.9567C72.9318 97.3722 74.3859 93.8682 74.3907 90.2132V74.4088H90.1891C93.8462 74.4056 97.3526 72.9514 99.9386 70.3654C102.525 67.7795 103.979 64.2731 103.982 60.616V43.366C103.974 39.7151 102.52 36.2161 99.9386 33.6346C97.3571 31.053 93.858 29.5992 90.2072 29.5912Z" fill="white"/>
</svg>
